<svg xmlns="http://www.w3.org/2000/svg" xmlns:xlink="http://www.w3.org/1999/xlink" width="249" height="34" viewBox="0 0 249 35"><defs><path id="lipxa" d="M147.8 48.76c-.89.9-1.65 1.9-2.26 2.97l-.95-.49a1.24 1.24 0 0 0-1.34-.95c-.67.07-1.16.7-1.07 1.37a1.21 1.21 0 0 0 1.74.95l.93.48a14.6 14.6 0 0 0-1.1 3.55l1.54.28a13.5 13.5 0 0 1 3.64-7.07z"/><path id="lipxb" d="M158.97 44.08l-1.04.02-.14-1.27c.37-.3.6-.8.53-1.33a1.45 1.45 0 0 0-1.62-1.27c-.81.1-1.37.81-1.28 1.62.07.51.4.95.84 1.14l.14 1.27c-1.46.23-2.86.68-4.2 1.32l.67 1.4a14.13 14.13 0 0 1 9.11-1.05l.33-1.5a16 16 0 0 0-3.34-.35z"/><path id="lipxc" d="M172.42 49.25a1.22 1.22 0 1 0-.3-2.43c-.63.07-1.1.62-1.1 1.23l-.85.74c-.86-.88-1.81-1.65-2.88-2.32l-.81 1.3a13.79 13.79 0 0 1 5.22 5.95l1.41-.62a15.1 15.1 0 0 0-1.92-3.15l.8-.72c.17.04.29.04.43.02z"/><path id="lipxd" d="M157.86 64.85c-.8.05-1.58.07-2.37.07-1.78 0-3.52-.11-5.05-.37-.8-.12-1.72-.32-2.6-.6a12.6 12.6 0 0 0 10.97 6.35 12.5 12.5 0 0 0 12.12-9.18 20.9 20.9 0 0 1-5 2.3 31.63 31.63 0 0 1-8.07 1.43z"/><path id="lipxe" d="M164.23 58.55a2.76 2.76 0 0 1-2.76-2.75 2.76 2.76 0 0 1 5.52 0 2.75 2.75 0 0 1-2.76 2.75zm-9.64 1.87a3.75 3.75 0 1 1 0-7.51 3.75 3.75 0 0 1 0 7.5zm4.38-13.26c-6.82 0-12.38 5.42-12.38 12.1 0 .86.1 1.74.28 2.57 1.37.98 5.52 1.81 10.9 1.49 5.86-.35 10.78-1.95 13.58-4.4 0-.4-.05-.8-.1-1.19-.76-6.03-6.04-10.57-12.28-10.57z"/><path id="lipxf" d="M285.86 56.57l-1.44 1.5a5.38 5.38 0 0 0-3.87-1.64c-2.85 0-5 2.22-5 5.28 0 3.09 2.15 5.29 5 5.29 1.56 0 2.92-.7 3.92-1.67l1.4 1.53a6.86 6.86 0 0 1-5.27 2.22c-4.36 0-7.35-3.17-7.35-7.39 0-4.2 3-7.37 7.35-7.37 2.09.02 3.99.81 5.26 2.25z"/><path id="lipxg" d="M288.99 61.72a5.08 5.08 0 0 0 5.18 5.29 5.1 5.1 0 0 0 5.19-5.29 5.1 5.1 0 0 0-5.19-5.28 5.1 5.1 0 0 0-5.18 5.28zm12.65 0c0 4.22-3.2 7.4-7.48 7.4a7.25 7.25 0 0 1-7.47-7.4c0-4.2 3.2-7.37 7.47-7.37a7.27 7.27 0 0 1 7.48 7.37z"/><path id="lipxh" d="M327.05 60.02v8.81h-2.22v-8.07c0-2.69-1.5-4.28-4.1-4.28a4.19 4.19 0 0 0-4.36 4.35v8h-2.23v-8.07c0-2.69-1.5-4.28-4.1-4.28a4.19 4.19 0 0 0-4.36 4.35v8h-2.25v-14.2h2.23v2a5.62 5.62 0 0 1 4.77-2.31c2.48 0 4.4 1.14 5.33 2.99 1.14-2.2 3.37-2.99 5.36-2.99 3.52.02 5.93 2.27 5.93 5.7z"/><path id="lipxi" d="M331.58 61.72c0 3.02 2.09 5.29 5.05 5.29 3.04 0 5.08-2.37 5.08-5.29s-2.06-5.28-5.08-5.28c-2.96.02-5.05 2.3-5.05 5.28zm12.4 0c0 4.27-3.1 7.4-7.1 7.4a6.26 6.26 0 0 1-5.16-2.4v8.1h-2.25v-20.2h2.25v2.12a6.26 6.26 0 0 1 5.17-2.39c3.99 0 7.1 3.13 7.1 7.37z"/><path id="lipxj" d="M347.71 61.72c0 2.94 2.07 5.29 5.08 5.29 2.94 0 5.05-2.28 5.05-5.29 0-2.99-2.08-5.26-5.05-5.26-3.04 0-5.08 2.34-5.08 5.26zm12.24 7.12h-2.22v-2.11a6.27 6.27 0 0 1-5.2 2.38c-3.98 0-7.09-3.12-7.09-7.39 0-4.26 3.1-7.37 7.1-7.37 2.34 0 4.05.95 5.19 2.39v-2.11h2.22z"/><path id="lipxk" d="M375.47 60.02v8.81h-2.23v-8.07c0-2.69-1.5-4.28-4.1-4.28a4.19 4.19 0 0 0-4.36 4.35v8h-2.25v-14.2h2.23v2a5.62 5.62 0 0 1 4.77-2.31c3.53.02 5.94 2.27 5.94 5.7z"/><path id="lipxl" d="M379.32 74.89h-2.48l5.28-9.13-6.51-11.13h2.5l5.29 8.9 5-8.9h2.47z"/><path id="lipxm" d="M191.57 50.96a5.86 5.86 0 0 0-2.8-.49c-1.12.14-1.72.7-1.72 2.04v1.76h4.54v3.5h-4.54v11.1h-3.94v-11.1h-2.74v-3.5h2.74v-1.8c0-3.43 1.83-5.66 5.24-5.66 1.3 0 2.36.25 3.24.63z"/><path id="lipxn" d="M201.14 57.73c-.37-.07-.72-.1-1.07-.1-1.83 0-3.08 1.12-3.08 3.3v7.95h-3.94v-14.6h3.8v1.6c.93-1.37 2.32-2 4.1-2 .84 0 1.72.25 2.23.7z"/><path id="lipxo" d="M206.34 60.22h6.47c-.37-1.88-1.48-2.93-3.18-2.93-1.85 0-2.94 1.12-3.29 2.93zm10.41 1.34c0 .44-.02 1-.07 1.32h-10.36c.41 2.11 1.9 3.04 3.75 3.04 1.28 0 2.65-.51 3.69-1.4l2.3 2.53a8.86 8.86 0 0 1-6.22 2.23c-4.47 0-7.58-3.04-7.58-7.65 0-4.6 3.01-7.72 7.4-7.72 4.2-.02 7.09 3.1 7.09 7.65z"/><path id="lipxp" d="M221.92 60.22h6.47c-.37-1.88-1.48-2.93-3.18-2.93-1.85 0-2.94 1.12-3.29 2.93zm10.41 1.34c0 .44-.02 1-.07 1.32H221.9c.41 2.11 1.9 3.04 3.75 3.04 1.28 0 2.65-.51 3.69-1.4l2.3 2.53a8.86 8.86 0 0 1-6.22 2.23c-4.47 0-7.58-3.04-7.58-7.65 0-4.6 3.01-7.72 7.4-7.72 4.22-.02 7.09 3.1 7.09 7.65z"/><path id="lipxq" d="M237.77 61.57c0 2.3 1.53 4.03 3.76 4.03 2.33 0 3.79-1.78 3.79-4.03 0-2.24-1.44-4.02-3.79-4.02-2.25 0-3.76 1.73-3.76 4.02zm11.55 0c0 4.39-3.04 7.7-7.07 7.7a5.3 5.3 0 0 1-4.3-1.9v7.56h-3.91V54.3h3.85v1.62a5.3 5.3 0 0 1 4.36-1.99c4.03-.05 7.07 3.27 7.07 7.65z"/><path id="lipxr" d="M255.12 68.88h-3.94v-14.6h3.94zm.53-19.37c0 1.41-1.09 2.5-2.53 2.5a2.46 2.46 0 0 1-2.5-2.5 2.48 2.48 0 0 1 2.5-2.53 2.5 2.5 0 0 1 2.53 2.53z"/><path id="lipxs" d="M261.67 59.5l5.52-5.22h4.82l-7.09 6.86 7.12 7.72h-4.85l-5.54-5.9v5.9h-3.94V47.2h3.94v12.3z"/></defs><g><g transform="translate(-142 -40)"><g><g><g><use fill="#0f2a47" xlink:href="#lipxa"/></g><g><use fill="#0f2a47" xlink:href="#lipxb"/></g><g><use fill="#0f2a47" xlink:href="#lipxc"/></g><g><use fill="#0f2a47" xlink:href="#lipxd"/></g><g><use fill="#0f2a47" xlink:href="#lipxe"/></g></g></g><g><g><use fill="#0f2a47" xlink:href="#lipxf"/></g><g><use fill="#0f2a47" xlink:href="#lipxg"/></g><g><use fill="#0f2a47" xlink:href="#lipxh"/></g><g><use fill="#0f2a47" xlink:href="#lipxi"/></g><g><use fill="#0f2a47" xlink:href="#lipxj"/></g><g><use fill="#0f2a47" xlink:href="#lipxk"/></g><g><use fill="#0f2a47" xlink:href="#lipxl"/></g></g><g><g><g><use fill="#0f2a47" xlink:href="#lipxm"/></g><g><use fill="#0f2a47" xlink:href="#lipxn"/></g><g><use fill="#0f2a47" xlink:href="#lipxo"/></g><g><use fill="#0f2a47" xlink:href="#lipxp"/></g><g><use fill="#0f2a47" xlink:href="#lipxq"/></g><g><use fill="#0f2a47" xlink:href="#lipxr"/></g><g><use fill="#0f2a47" xlink:href="#lipxs"/></g></g></g></g></g></svg>